<svg width="512" height="512" viewBox="0 0 512 512" fill="none" xmlns="http://www.w3.org/2000/svg">
  <defs>
    <linearGradient id="bg-h" x1="84" y1="84" x2="428" y2="428" gradientUnits="userSpaceOnUse">
      <stop stop-color="#F7F9FC"/>
      <stop offset="1" stop-color="#DFE9F7"/>
    </linearGradient>
    <linearGradient id="accent-h" x1="86" y1="102" x2="390" y2="390" gradientUnits="userSpaceOnUse">
      <stop stop-color="#149287"/>
      <stop offset="1" stop-color="#0F766E"/>
    </linearGradient>
    <filter id="shadow-h" x="18" y="44" width="476" height="428" filterUnits="userSpaceOnUse" color-interpolation-filters="sRGB">
      <feDropShadow dx="0" dy="20" stdDeviation="24" flood-color="#1F2937" flood-opacity="0.12"/>
    </filter>
  </defs>

  <rect width="512" height="512" rx="96" fill="url(#bg-h)"/>
  <g filter="url(#shadow-h)">
    <path d="M88 220C88 180.2 120.2 148 160 148C170.1 148 179.5 150.1 187.9 154.1C202.9 123.7 234 103.5 269.8 103.5C318.4 103.5 359 139 368.2 185.9C374 184.1 379.9 183.3 386.5 183.3C415.8 183.3 439.5 207 439.5 236.3C439.5 265.6 415.8 289.3 386.5 289.3H160C120.2 289.3 88 257.1 88 217.3V220Z" fill="url(#accent-h)"/>
    <path d="M122 348C156.9 393.9 199.1 415.8 255 415.8C304.9 415.8 350.7 398.8 391 365.8" stroke="#142033" stroke-width="30" stroke-linecap="round"/>
    <path d="M350.2 361.5L391 365.8L387 406.5" stroke="#142033" stroke-width="30" stroke-linecap="round" stroke-linejoin="round"/>
  </g>
</svg>
